<svg xmlns="http://www.w3.org/2000/svg" xmlns:xlink="http://www.w3.org/1999/xlink" id="Camada_2" viewBox="0 0 208.42 150.45"><defs><style>.cls-1{clip-path:url(#clippath-2);}.cls-2{fill:none;}.cls-2,.cls-3,.cls-4{stroke-width:0px;}.cls-5{clip-path:url(#clippath-1);}.cls-3,.cls-6{fill:#26402f;}.cls-7{clip-path:url(#clippath);}.cls-4{fill:#df8f62;}.cls-6{font-family:CormorantSC-Regular, 'Cormorant SC';font-size:24px;}.cls-8{isolation:isolate;opacity:.69;}</style><clipPath id="clippath"><rect class="cls-2" x="8.65" y="126.93" width="190.8" height="23.52"></rect></clipPath><clipPath id="clippath-1"><rect class="cls-2" x="53.02" y=".79" width="71.25" height="134.25" transform="translate(-18.07 100.84) rotate(-54.61)"></rect></clipPath><clipPath id="clippath-2"><rect class="cls-2" x="53.02" y=".79" width="71.25" height="134.25" transform="translate(-18.07 100.84) rotate(-54.61)"></rect></clipPath></defs><g id="Camada_1-2"><text class="cls-6" transform="translate(0 123.64)"><tspan x="0" y="0">T</tspan></text><text class="cls-6" transform="translate(17.62 123.64)"><tspan x="0" y="0">A</tspan></text><text class="cls-6" transform="translate(36.86 123.64)"><tspan x="0" y="0">L</tspan></text><text class="cls-6" transform="translate(52.06 123.64)"><tspan x="0" y="0">I</tspan></text><text class="cls-6" transform="translate(62.42 123.64)"><tspan x="0" y="0">T</tspan></text><text class="cls-6" transform="translate(80.04 123.64)"><tspan x="0" y="0">A</tspan></text><text class="cls-6" transform="translate(99.29 123.64)"><tspan x="0" y="0"> </tspan></text><text class="cls-6" transform="translate(107.3 123.64)"><tspan x="0" y="0">P</tspan></text><text class="cls-6" transform="translate(122.74 123.64)"><tspan x="0" y="0">E</tspan></text><text class="cls-6" transform="translate(138.02 123.64)"><tspan x="0" y="0">R</tspan></text><text class="cls-6" transform="translate(156.58 123.64)"><tspan x="0" y="0">O</tspan></text><text class="cls-6" transform="translate(177.36 123.64)"><tspan x="0" y="0">S</tspan></text><text class="cls-6" transform="translate(191.54 123.64)"><tspan x="0" y="0">A</tspan></text><g class="cls-8"><g class="cls-7"><path class="cls-3" d="m9.82,144c.1.11.26.11.35,0,.1-.13.14-.29.19-.45.13-.46.21-.94.27-1.44.24-1.57.54-3.14.98-4.67.32-1.1.72-2.16,1.28-3.15.16-.27.34-.53.54-.75.14-.18.32-.3.54-.38.35-.13.54-.06.72.27.11.19.18.42.21.62.06.37.1.74.08,1.1-.02.78-.02,1.57-.05,2.35-.03.86-.02,1.71-.1,2.58-.1,1.09-.13,2.18-.11,3.26,0,.08-.02.16,0,.22,0,.08.05.14.13.14.1.02.19-.05.19-.14.02-.11.02-.22.03-.35,0-.51.02-1.02.03-1.55.05-.98.13-1.94.16-2.91.03-1.28.08-2.58.06-3.86,0-.34-.02-.69-.1-1.01-.05-.29-.14-.54-.3-.78-.19-.27-.45-.42-.8-.37-.26.03-.48.13-.69.29-.22.16-.42.37-.58.61-.27.38-.5.8-.69,1.23-.53,1.1-.9,2.26-1.18,3.42-.34,1.39-.59,2.78-.8,4.18-.03.29-.06.59-.22.94-.14-.38-.18-.69-.22-.99-.13-.74-.13-1.47-.14-2.21-.03-1.97-.03-3.94-.03-5.9v-1.15c0-.08,0-.18-.02-.26,0-.11-.08-.18-.18-.16-.08,0-.13.05-.14.14-.02.06-.02.14-.02.21,0,.48-.02.94-.02,1.42.02,1.76.03,3.52.03,5.28,0,.74.03,1.47.1,2.21.05.54.13,1.09.29,1.62.05.13.08.27.19.38Z"></path><path class="cls-3" d="m25.09,141.46c.59-.06,1.09-.35,1.55-.72.7-.56,1.23-1.26,1.7-2.03.03-.06.06-.16.1-.24,0-.06-.03-.11-.08-.14-.06-.03-.11-.03-.18-.02-.08.05-.13.13-.16.21-.32.53-.7,1.02-1.12,1.49-.3.32-.66.59-1.04.82-.88.51-2.29.42-3.06-.74-.24-.35-.42-.74-.53-1.15-.11-.37-.19-.75-.27-1.12-.03-.13-.06-.26-.14-.37-.11-.18-.27-.22-.45-.11-.1.06-.19.14-.27.24-.11.14-.22.3-.32.46-.27.4-.53.8-.78,1.18-.13.19-.26.37-.43.51-.27.22-.5.19-.7-.1-.16-.22-.26-.46-.29-.74-.05-.53.03-1.04.14-1.54.02-.1.05-.18.05-.26.02-.08-.02-.16-.1-.18-.08-.03-.18,0-.22.08-.03.06-.06.13-.08.21-.1.43-.18.86-.19,1.31,0,.22.03.43.08.66.06.27.18.53.35.75.34.38.74.43,1.14.13.13-.1.24-.22.35-.34.11-.14.22-.3.34-.46.22-.34.43-.67.66-1.01l.24-.37c.05-.06.1-.13.18-.13.08.02.1.1.11.18,0,.06.02.13.03.18.08.34.14.66.24.99.16.5.38.99.74,1.41.62.77,1.46,1.06,2.43.94Z"></path><path class="cls-3" d="m28.27,134.49c.02-.18.03-.37.05-.58h.7c-.14,1.42-.48,3.18-.66,4.18-.22-1.44-.1-3.42-.1-3.6Zm.16-1.49c.06-.32.16-.62.34-.91.03-.06.1-.11.18-.1.08.02.11.1.11.16.05.35.05.86,0,1.44h-.7c.02-.19.05-.4.08-.59Zm8.22,5.41c-.06-.05-.14-.06-.21-.03-.05.03-.1.06-.13.11-.11.13-.21.26-.3.38-.61.82-1.28,1.55-2.03,2.22-.35.32-.74.59-1.15.82-.18.08-.35.18-.54.18-1.02.05-1.92-.22-2.59-1.06-.3-.37-.53-.78-.72-1.22-.37-.72-.42-1.07-.34-1.57,0,.06.48-2.34.7-4.34h5.81c.24,0,.26-.32,0-.32h-5.78c.05-.53.08-1.02.06-1.42-.02-.14-.06-.29-.16-.4-.18-.22-.45-.24-.66-.06-.13.11-.21.26-.27.4-.18.4-.29.82-.34,1.23,0,.08-.02.18-.02.26h-3.62c-.22,0-.22.32,0,.32h3.58c-.16,2.34-.3,4.64,1.23,7.07.53.8,1.26,1.23,2.16,1.42.67.14,1.33.06,1.92-.32.37-.24.72-.51,1.06-.8.83-.77,1.55-1.62,2.22-2.53.05-.05.08-.11.11-.18.03-.06.02-.13-.02-.18Z"></path><path class="cls-3" d="m36.32,138.07c-.27-.06-.53-.18-.75-.37-.5-.42-.5-.98-.29-1.39.16-.37.53-.53.86-.43.19.06.34.18.43.35.14.26.16.54.18.78-.03.35-.06.66-.18.94-.06.11-.11.14-.26.11Zm4.67,3.79c.26-.02.51-.08.77-.16.59-.22,1.07-.58,1.5-1.01.61-.61,1.04-1.36,1.5-2.08.03-.03.05-.06.05-.11.02-.08-.02-.14-.1-.18-.05-.03-.11-.03-.16,0-.06.05-.11.11-.14.18l-.62.91c-.27.45-.61.83-.98,1.18-.42.4-.9.69-1.46.83-.62.16-1.17.03-1.65-.4-.4-.35-.7-.78-.91-1.28-.13-.3-.24-.61-.35-.91-.16-.45-.46-.67-.94-.64h-.3c-.35,0-.37-.03-.29-.35.08-.29.14-.58.14-.88.02-.32-.05-.64-.21-.93-.34-.62-1.09-.75-1.62-.29-.11.1-.21.21-.27.34-.37.75-.19,1.42.35,1.89.5.46,1.54.62,2.13.59.4-.03.51.06.66.43.13.3.24.61.37.91.24.58.59,1.07,1.09,1.49.42.34.9.5,1.44.46Z"></path><path class="cls-3" d="m46.4,141.52c.26,0,.53-.02.78-.08.58-.13,1.09-.38,1.55-.72.62-.43,1.17-.96,1.7-1.49.19-.19.38-.38.56-.58.06-.06.08-.16.02-.24-.06-.06-.16-.08-.24-.02-.13.1-.26.21-.37.32-.42.45-.85.86-1.31,1.26-.45.38-.93.72-1.49.94-.53.21-1.07.29-1.65.18-.38-.06-.66-.26-.85-.58-.3-.5-.45-1.02-.37-1.6.02-.13.03-.27.03-.4.02-.08-.03-.14-.11-.16-.06-.03-.18.02-.21.11-.03.11-.08.22-.1.34-.06.61.03,1.17.3,1.71.32.62.82.98,1.52.98.06.02.14.02.22.02Zm-1.52-4.13c.16-.06.27-.22.27-.37-.02-.13-.08-.22-.19-.29-.06-.03-.14-.03-.21.03-.11.13-.19.29-.14.48.03.11.18.19.27.14Z"></path><path class="cls-3" d="m57.44,140.5c.58.16,1.15.13,1.73-.11.88-.38,1.62-.98,2.29-1.65.02-.03.03-.05.05-.06.1-.13.11-.26.03-.32s-.18-.05-.29.05c-.08.08-.16.16-.24.26-.62.61-1.3,1.1-2.11,1.42-.21.08-.43.14-.66.14-.64-.02-1.25-.19-1.78-.59-.48-.38-.88-.83-1.26-1.3-.3-.38-.61-.77-.91-1.15l-.24-.26c-.3-.24-.66-.26-.98-.03-.22.14-.37.35-.5.56-.13.24-.26.48-.37.72-.14.29-.27.59-.42.88-.11.22-.22.45-.38.64-.06.08-.13.19-.24.16-.08-.03-.11-.13-.14-.22-.08-.32-.1-.64-.05-.96.02-.11.02-.21.02-.3,0-.06-.05-.11-.1-.13-.08-.03-.16-.02-.21.05-.03.06-.06.14-.06.21-.03.16-.03.32-.05.51.02.14.02.3.03.46.03.16.06.32.13.46.18.42.5.48.8.18.11-.11.21-.22.29-.35.18-.26.32-.56.46-.85.14-.32.29-.64.45-.96.08-.18.19-.34.3-.5.29-.4.62-.46.96-.03.29.38.59.74.88,1.12.35.42.72.82,1.12,1.18.42.38.9.62,1.44.77Z"></path><path class="cls-3" d="m64.23,137.3c-.14-.21-.18-.43-.22-.64-.1-.45-.16-.9-.19-1.36-.02-.37-.05-.74-.06-1.1-.03-1.68.35-3.26,1.1-4.77.14-.27.3-.54.5-.78.16-.19.32-.35.53-.46.29-.18.56-.14.83.05.14.13.26.27.34.45.18.4.21.8.21,1.22-.02.51-.11.99-.22,1.49-.43,2.08-1.3,3.97-2.56,5.68l-.13.18s-.05.03-.11.06Zm3.66,3.33c-.53-.06-1.01-.21-1.46-.48-.78-.5-1.39-1.15-1.86-1.95-.24-.43-.21-.38.05-.74,1.5-1.97,2.46-4.18,2.9-6.62.05-.34.1-.67.1-1.01.02-.46-.06-.9-.24-1.31-.11-.24-.27-.45-.5-.61-.38-.26-.77-.29-1.17-.06-.26.16-.48.35-.66.59-.19.22-.35.48-.48.74-.67,1.3-1.09,2.66-1.17,4.11-.08,1.44,0,2.86.46,4.24.06.18.02.29-.1.4-.4.48-.85.9-1.38,1.25-.1.06-.19.13-.3.18-.38.18-.56.08-.62-.32,0-.1-.02-.18,0-.27.03-.38.18-.7.43-.99.3-.34.66-.43,1.07-.27.1.02.18.05.26.06.03,0,.1-.03.11-.06.02-.03.02-.1,0-.13-.06-.06-.13-.13-.19-.18-.46-.27-1.07-.13-1.42.22-.35.35-.56.77-.62,1.25-.03.27,0,.54.11.78.14.3.42.42.74.34.24-.05.45-.16.64-.29.37-.24.69-.51.99-.82l.4-.42c.08-.1.14-.08.21.02.21.34.42.66.66.96.45.54.96.99,1.58,1.33,1.09.58,2.18.59,3.23-.1l.11-.06c.75-.46,1.26-1.15,1.79-1.82.08-.11.06-.22-.02-.29-.08-.05-.18-.03-.27.06-.08.08-.14.19-.22.27-.22.27-.43.53-.66.78-.38.42-.85.74-1.36.98-.37.18-.75.29-1.15.24Z"></path><path class="cls-3" d="m72.52,140.61c-.58-.16-.96-.62-.99-1.22-.03-.43.05-.88.27-1.26.02-.03.05-.06.08-.1.08.03.08.1.1.14.11.42.35.75.66,1.02.27.26.56.5.86.69.14.08.14.14.05.27-.13.18-.27.3-.46.4-.18.08-.37.1-.56.05Zm1.18-1.07c-.53-.3-.99-.67-1.28-1.23-.22-.42.16-.91.46-.99.16-.05.32,0,.46.08.42.21.62.56.69,1.01.02.1.02.18.02.26-.02.27-.06.53-.16.78-.03.11-.11.16-.19.1Zm-1.52,1.34c.42.21.8.18,1.18-.05.18-.11.34-.22.43-.38.18-.34.42-.35.74-.22.1.05.22.06.34.1.45.11.9.13,1.36.08,1.38-.14,2.54-.74,3.47-1.76.05-.05.1-.11.14-.18.03-.05,0-.11-.03-.16-.06-.06-.13-.08-.21-.05-.05.02-.1.06-.14.1-.1.11-.21.21-.32.32-.93.88-2.03,1.33-3.5,1.38-.3.03-.77-.11-1.23-.26-.14-.03-.16-.1-.13-.22l.05-.26c.1-.32.11-.64.08-.98-.06-.53-.32-.94-.78-1.22-.4-.26-.82-.34-1.25.06-.06.05-.11.11-.19.11-.3-.03-.43.19-.58.4-.29.43-.43.9-.46,1.41-.05.85.29,1.41,1.04,1.78Z"></path><path class="cls-3" d="m91.73,144.76c.93-.18,1.76-.58,2.48-1.22.82-.7,1.5-1.52,2.08-2.45.48-.78.86-1.62,1.26-2.43l.05-.13c0-.08-.03-.14-.11-.18-.06-.03-.13-.02-.16.03-.05.05-.1.11-.13.18-.13.22-.24.45-.34.67-.3.67-.67,1.31-1.07,1.94-.51.82-1.17,1.54-1.9,2.16-.66.56-1.42.93-2.29,1.07-.32.06-.66.06-.98-.02-.83-.22-1.58-.62-2.16-1.31-1.18-1.42-1.65-3.07-1.47-4.91.03-.32.1-.64.16-.96.26-1.36,1.01-2.37,2.24-3.01.37-.18.75-.27,1.15-.26.19,0,.38.02.58.05.46.05.9.19,1.3.43.29.18.58.35.7.7.03.08.18.06.22-.02.05-.1.05-.19.02-.3-.05-.18-.19-.29-.32-.4-.82-.64-1.74-.86-2.75-.83-.35.02-.7.11-1.01.29-1.22.62-2.06,1.55-2.4,2.91-.18.69-.27,1.38-.3,2.35.05,1.23.43,2.62,1.33,3.86.59.8,1.36,1.33,2.29,1.66.51.18,1.01.21,1.54.11Z"></path><path class="cls-3" d="m98.5,140.61c-.58-.16-.96-.62-.99-1.22-.03-.43.05-.88.27-1.26.02-.03.05-.06.08-.1.08.03.08.1.1.14.11.42.35.75.66,1.02.27.26.56.5.86.69.14.08.14.14.05.27-.13.18-.27.3-.46.4-.18.08-.37.1-.56.05Zm1.18-1.07c-.53-.3-.99-.67-1.28-1.23-.22-.42.16-.91.46-.99.16-.05.32,0,.46.08.42.21.62.56.69,1.01.02.1.02.18.02.26-.02.27-.06.53-.16.78-.03.11-.11.16-.19.1Zm-1.52,1.34c.42.21.8.18,1.18-.05.18-.11.34-.22.43-.38.18-.34.42-.35.74-.22.1.05.22.06.34.1.45.11.9.13,1.36.08,1.38-.14,2.54-.74,3.47-1.76.05-.05.1-.11.14-.18.03-.05,0-.11-.03-.16-.06-.06-.13-.08-.21-.05-.05.02-.1.06-.14.1-.1.11-.21.21-.32.32-.93.88-2.03,1.33-3.5,1.38-.3.03-.77-.11-1.23-.26-.14-.03-.16-.1-.13-.22l.05-.26c.1-.32.11-.64.08-.98-.06-.53-.32-.94-.78-1.22-.4-.26-.82-.34-1.25.06-.06.05-.11.11-.19.11-.3-.03-.43.19-.58.4-.29.43-.43.9-.46,1.41-.05.85.29,1.41,1.04,1.78Z"></path><path class="cls-3" d="m105.47,138.07c-.27-.06-.53-.18-.75-.37-.5-.42-.5-.98-.29-1.39.16-.37.53-.53.86-.43.19.06.34.18.43.35.14.26.16.54.18.78-.03.35-.06.66-.18.94-.06.11-.11.14-.26.11Zm4.67,3.79c.26-.02.51-.08.77-.16.59-.22,1.07-.58,1.5-1.01.61-.61,1.04-1.36,1.5-2.08.03-.03.05-.06.05-.11.02-.08-.02-.14-.1-.18-.05-.03-.11-.03-.16,0-.06.05-.11.11-.14.18l-.62.91c-.27.45-.61.83-.98,1.18-.42.4-.9.69-1.46.83-.62.16-1.17.03-1.65-.4-.4-.35-.7-.78-.91-1.28-.13-.3-.24-.61-.35-.91-.16-.45-.46-.67-.94-.64h-.3c-.35,0-.37-.03-.29-.35.08-.29.14-.58.14-.88.02-.32-.05-.64-.21-.93-.34-.62-1.09-.75-1.62-.29-.11.1-.21.21-.27.34-.37.75-.19,1.42.35,1.89.5.46,1.54.62,2.13.59.4-.03.51.06.66.43.13.3.24.61.37.91.24.58.59,1.07,1.09,1.49.42.34.9.5,1.44.46Z"></path><path class="cls-3" d="m115.01,146.95c.05.08.22.06.27-.03.02-.05.03-.11.03-.18l-.05-.48c-.11-1.63.03-3.25.35-4.85.16-.75.4-1.47.74-2.18.11-.19.22-.38.4-.53.27-.24.61-.18.77.14.1.18.14.37.14.56.06.93-.19,1.74-.78,2.46-.11.14-.26.29-.38.43-.06.08-.13.16-.18.24-.08.13,0,.29.14.29.06.02.13,0,.18-.02l.42-.14c.8-.32,1.54-.77,2.29-1.18,1.25-.7,2.37-1.6,3.31-2.7.02-.03.05-.06.08-.1.08-.11.08-.22,0-.29-.1-.05-.18-.03-.26.03-.13.13-.26.27-.38.42-.51.58-1.06,1.07-1.68,1.52-.96.67-1.98,1.22-3.02,1.76-.06.03-.13.06-.19.02v-.05l.1-.14c.35-.46.56-.98.67-1.54.13-.54.14-1.09-.06-1.62-.26-.67-.99-.82-1.49-.29-.19.19-.32.43-.43.67-.48.98-.74,2.02-.88,3.09-.08.53-.14,1.06-.22,1.58h-.05c-.02-.13-.06-.26-.08-.38-.1-.82-.26-1.62-.38-2.42-.14-.86-.24-1.74-.35-2.62l-.05-.22c-.03-.06-.11-.1-.19-.08-.06.02-.1.05-.11.11-.03.14-.02.27,0,.4.08.59.14,1.17.24,1.76.1.64.21,1.28.32,1.92.11.75.21,1.52.34,2.27.11.72.24,1.42.37,2.14.02.06.05.14.08.21Z"></path><path class="cls-3" d="m123.69,140.61c-.58-.16-.96-.62-.99-1.22-.03-.43.05-.88.27-1.26.02-.03.05-.06.08-.1.08.03.08.1.1.14.11.42.35.75.66,1.02.27.26.56.5.86.69.14.08.14.14.05.27-.13.18-.27.3-.46.4-.18.08-.37.1-.56.05Zm1.18-1.07c-.53-.3-.99-.67-1.28-1.23-.22-.42.16-.91.46-.99.16-.05.32,0,.46.08.42.21.62.56.69,1.01.02.1.02.18.02.26-.02.27-.06.53-.16.78-.03.11-.11.16-.19.1Zm-1.52,1.34c.42.21.8.18,1.18-.05.18-.11.34-.22.43-.38.18-.34.42-.35.74-.22.1.05.22.06.34.1.45.11.9.13,1.36.08,1.38-.14,2.54-.74,3.47-1.76.05-.05.1-.11.14-.18.03-.05,0-.11-.03-.16-.06-.06-.13-.08-.21-.05-.05.02-.1.06-.14.1-.1.11-.21.21-.32.32-.93.88-2.03,1.33-3.5,1.38-.3.03-.77-.11-1.23-.26-.14-.03-.16-.1-.13-.22l.05-.26c.1-.32.11-.64.08-.98-.06-.53-.32-.94-.78-1.22-.4-.26-.82-.34-1.25.06-.06.05-.11.11-.19.11-.3-.03-.43.19-.58.4-.29.43-.43.9-.46,1.41-.05.85.29,1.41,1.04,1.78Z"></path><path class="cls-3" d="m138.36,138.12c-.13,0-.19-.05-.18-.13.06-.38.27-.64.62-.8.06-.03.14-.03.21-.03.29.02.4.21.26.45-.21.37-.56.48-.91.51Zm1.78,1.87c.24-.02.48-.02.72-.05.13,0,.26-.05.38-.08.93-.32,1.79-.75,2.54-1.39.05-.03.1-.06.14-.11.05-.08.06-.16,0-.24-.05-.08-.14-.1-.22-.03-.14.1-.27.19-.4.29-.61.48-1.31.8-2.03,1.07-.66.24-1.36.22-2.05.06-.19-.05-.38-.14-.56-.24-.21-.13-.35-.3-.45-.53-.05-.11-.02-.19.13-.22.1-.02.19-.03.3-.06.27-.05.53-.18.74-.37.18-.18.29-.37.32-.62.03-.26-.05-.45-.3-.58-.29-.16-.59-.14-.88.02-.85.48-1.04,1.81-.32,2.5.19.18.4.29.64.38.42.16.86.21,1.3.21Z"></path><path class="cls-3" d="m151.85,143.51c-.19-.19-.34-.43-.45-.69-.26-.58-.34-1.17-.34-1.78v-.53c.03-.7.06-1.42.22-2.11.24-1.01.56-1.98.99-2.93.24-.5.54-.94.94-1.33.21-.22.46-.4.77-.5.32-.11.61-.05.88.14.16.11.3.24.42.4.34.46.54,1.01.7,1.55.05.14.03.27,0,.4-.46,1.49-.86,3.01-1.44,4.46-.27.72-.59,1.44-.99,2.11-.18.29-.35.56-.58.78-.4.42-.72.42-1.14,0Zm.02.5c.4.27.78.26,1.18-.05.18-.14.32-.3.45-.48.29-.38.53-.78.74-1.22.46-.93.83-1.89,1.15-2.88.38-1.23.75-2.48,1.14-3.73.1-.34.21-.67.37-.99.05-.11.1-.21.16-.32.03-.05.06-.14.16-.11.06.02.05.1.06.14v.54c-.03.72-.08,1.44-.1,2.16-.02.5-.03,1.06-.03,1.6-.02,2.13.85,3.09,2.24,3.07,1.57-.02,2.66-1.55,3.57-3.18,0-.03.03-.08.03-.11.03-.1-.02-.19-.1-.22-.08-.03-.14-.02-.19.05-.05.06-.1.13-.13.19-.94,1.79-2.06,2.88-3.15,2.88-.94,0-1.95-.64-1.92-2.69.02-1.23.06-2.34.14-3.5.03-.38.03-.77-.05-1.15-.08-.34-.34-.42-.59-.19-.13.11-.22.24-.3.38-.11.24-.22.48-.32.74l-.14.32c-.1-.03-.11-.1-.14-.18-.1-.21-.18-.43-.29-.64-.16-.35-.38-.66-.69-.91-.35-.29-.74-.35-1.17-.24-.35.1-.66.29-.91.53-.48.46-.86,1.01-1.14,1.63-.4.9-.72,1.84-.94,2.8-.26,1.09-.29,2.19-.24,3.31.02.53.18,1.04.4,1.52.18.37.4.69.75.93Z"></path><path class="cls-3" d="m163.19,138.42s-.13,0-.14-.05c-.05-.22-.1-.43-.11-.66-.1-1.49-.08-2.98.18-4.46.19-1.18.58-2.32,1.17-3.38.3-.53.66-1.01,1.1-1.42.29-.27.62-.45,1.04-.43.53,0,.93.32,1.04.85.05.22.06.46.03.7,0,.67-.19,1.31-.42,1.94-.5,1.5-1.14,2.94-2.05,4.26-.32.48-.62.98-.93,1.47-.22.35-.48.7-.75,1.02-.05.06-.11.11-.16.16Zm2.37,3.6c.82.16,1.58.05,2.26-.46.21-.16.38-.34.54-.51.64-.72,1.07-1.54,1.46-2.38.06-.14.03-.26-.08-.3-.1-.03-.18,0-.26.13l-.24.51c-.35.74-.77,1.41-1.33,1.98-.54.54-1.2.8-1.97.72-.26-.02-.5-.08-.7-.22-.86-.54-1.52-1.26-1.9-2.22-.1-.22-.1-.38.08-.59.45-.45.8-.98,1.15-1.52.24-.4.5-.8.75-1.18.98-1.42,1.65-2.98,2.18-4.59.21-.62.35-1.25.38-1.9.02-.26-.02-.5-.06-.75-.19-.82-1.04-1.18-1.66-1.06-.37.06-.7.22-.98.48-.29.26-.54.54-.77.86-.86,1.2-1.36,2.58-1.65,4.02-.19,1.06-.26,2.11-.24,3.18v1.06c.03.78.21,1.52.51,2.24.43.99,1.12,1.76,2.03,2.34.16.08.32.16.5.19Z"></path><path class="cls-3" d="m169.9,140.42c.21,0,.32-.14.42-.3.16-.27.29-.58.4-.88.21-.54.4-1.09.59-1.63.18-.54.37-1.09.61-1.62.06-.14.13-.29.22-.43.05-.1.13-.19.22-.27.06-.08.18-.05.21.05.03.11.06.22.08.34.06.32.08.64.08.98.02.78.08,1.55.18,2.34.05.37.16.72.4,1.02.19.26.46.26.67.02.1-.11.18-.26.26-.4.11-.16.19-.34.29-.5.19-.3.35-.35.67-.21l.72.35c.18.1.35.21.56.26.77.24,1.54.37,2.35.21.83-.14,1.58-.46,2.24-.99.06-.06.14-.11.19-.18.06-.06.08-.13.03-.21-.05-.08-.16-.11-.22-.08-.11.06-.21.14-.29.21-1.41,1.12-3.49,1.22-4.83.38-.16-.1-.32-.18-.48-.26l-.24-.1c-.42-.13-.72-.03-.98.32-.1.16-.19.34-.29.5l-.19.35c-.08.11-.18.1-.24-.02-.16-.29-.24-.59-.27-.93-.1-.85-.14-1.71-.18-2.56,0-.26-.03-.5-.08-.75l-.1-.29c-.16-.34-.43-.4-.72-.21-.14.1-.26.22-.34.35-.11.19-.21.4-.3.59-.22.5-.4,1.02-.58,1.54l-.72,1.95c-.06.16-.14.32-.22.48-.02.02-.05.03-.08.05-.05,0-.08-.03-.1-.08-.02-.06-.05-.13-.05-.21-.06-.3-.1-.61-.06-.93,0-.1.03-.21-.02-.3-.02-.06-.06-.1-.13-.11-.06,0-.11.03-.14.08-.03.05-.06.11-.06.16-.02.16-.02.32-.03.4.02.45.03.8.18,1.14.06.18.14.37.37.38Z"></path><path class="cls-3" d="m181.93,139.91c-.27.14-.48.08-.62-.19-.06-.16-.1-.32-.1-.48.06-.78.32-1.49.88-2.06.34-.35.75-.51,1.25-.35.3.1.45.3.54.59.02.06.02.14-.03.21l-.1.14c-.4.59-.83,1.14-1.3,1.68-.16.18-.32.34-.53.46Zm4.67,1.73c.8.21,1.58.1,2.34-.24.56-.26,1.09-.58,1.58-.96.69-.53,1.26-1.15,1.86-1.79l.06-.1c.05-.08.03-.19-.03-.24-.06-.05-.14-.05-.21,0-.06.05-.11.1-.16.14-.19.21-.38.42-.58.61-.7.74-1.47,1.38-2.38,1.84-.43.22-.9.37-1.38.45-1.41.18-2.46-.8-2.75-1.82-.11-.45-.11-.9-.06-1.36.02-.26.05-.5.06-.75.02-.1.02-.21,0-.3-.03-.24-.21-.34-.42-.21-.1.05-.19.13-.32.22l-.21-.29c-.18-.24-.43-.38-.74-.43-.43-.06-.83.02-1.18.27-.21.14-.38.32-.53.53-.34.46-.56.98-.66,1.54-.06.29-.08.59-.02.88.13.7.74.94,1.33.54.08-.05.16-.11.24-.19l.48-.51c.4-.46.77-.94,1.1-1.44.13-.18.26-.34.38-.5.02-.02.05-.02.08-.02.06-.02.06.05.06.08-.05.4-.08.8-.08,1.2s.06.77.21,1.12c.37.88.98,1.47,1.9,1.73Z"></path></g></g><g class="cls-5"><g class="cls-1"><path class="cls-4" d="m117.34,91.93c-1.37.23-2.76.21-4.13.09-1.4-.12-2.79-.34-4.19-.53-1.49-.2-2.98-.32-4.49-.34-3.16-.05-6.32.23-9.48.19-1.37-.02-2.74-.09-4.1-.21,1.7-.4,3.43-.69,5.17-.86,2.39-.24,4.8-.25,7.2-.07,2.53.19,5.04.55,7.57.77,2.29.19,4.61.25,6.9-.03,1.76-.22,3.51-.65,5.14-1.38-.54.35-1.09.69-1.66.99-1.24.66-2.55,1.16-3.93,1.39Zm-16.08-4.47c3.08-.48,6.11.26,9.11.91,2.63.57,5.3,1.01,8,1.01,1.56,0,3.13-.16,4.64-.55-1.48.7-3.07,1.14-4.68,1.39-2.23.35-4.49.33-6.74.16-2.51-.18-4.99-.54-7.49-.76-2.41-.21-4.82-.25-7.24-.06-1.39.11-2.78.3-4.16.55,0,0,.02,0,.03,0,2.84-.9,5.58-2.18,8.54-2.64Zm-.04-7.75c-2.64-2-4.88-4.54-6.48-7.44-1.67-3.02-2.6-6.37-3.77-9.6-.59-1.63-1.25-3.23-2.09-4.75-.9-1.63-1.95-3.17-2.81-4.82-.57-1.09-1.05-2.22-1.47-3.37.52.95,1.11,1.86,1.7,2.77.71,1.09,1.42,2.17,2.07,3.29.7,1.21,1.36,2.45,1.97,3.71,1.24,2.52,2.36,5.09,3.53,7.64,1.13,2.48,2.32,4.93,3.72,7.28,1.17,1.96,2.47,3.85,3.99,5.56-.12-.09-.24-.17-.36-.26Zm-15.44-29.76c2.21,2.64,4.91,4.81,7.09,7.47,2.06,2.51,3.43,5.44,4.5,8.49,1.06,3.04,1.82,6.17,2.84,9.22.54,1.6,1.19,3.23,2.08,4.69-1.37-1.51-2.57-3.16-3.65-4.88-1.43-2.29-2.64-4.71-3.78-7.16-1.17-2.52-2.27-5.08-3.48-7.59-1.18-2.46-2.49-4.86-3.98-7.15-.96-1.48-1.97-2.95-2.75-4.54.36.49.73.97,1.12,1.43Zm-32.24,20.03c-2.64-.53-5.28-1.04-7.96-1.31-2.6-.26-5.35-.41-7.92.17-.07.01-.11.05-.13.1-.59-.07-1.18-.13-1.78-.17,1.78-.49,3.67-.72,5.48-.88,2.58-.22,5.18-.18,7.76,0,2.52.17,5.04.46,7.55.77,2.68.33,5.19.99,7.76,1.78,1.38.43,2.84.87,4.31,1.02-5.03.77-10.14-.49-15.07-1.48Zm8.7,3.21c-6.06.68-11.88-1.98-17.72-3.13-1.82-.36-3.68-.69-5.56-.95,2.38-.13,4.73-.16,7.12.11,2.74.3,5.44.83,8.14,1.35,2.8.54,5.6,1.08,8.44,1.36,1.44.14,3.03.3,4.55.15-1.62.5-3.25.93-4.97,1.12Zm-10.79-16.59c-.47-.21-.94-.42-1.41-.62-4.09-1.74-8.42-2.97-12.9-2.4-.26.03-.19.43.07.41,4.27-.41,8.49.81,12.39,2.46,1.03.44,2.05.9,3.06,1.38-3.26-.5-6.73-.09-10-.62-5.03-.8-9.61-3.29-14.63-4.21-1.84-.33-3.78-.6-5.69-.64,2.04-.66,4.16-1.15,6.23-1.55,2.83-.55,5.72-.8,8.6-.57,2.94.24,5.79,1.01,8.41,2.36,2.13,1.1,4.01,2.51,5.87,3.98Zm18.38-4.01c-.62-2.51-.64-5.18-.69-7.75-.04-2.49-.04-4.98-.28-7.46-.06-.6-.15-1.2-.24-1.8.54,3.03.88,6.1,1.28,9.15.49,3.73,1.09,7.45,2.26,11.03.4,1.24.88,2.45,1.43,3.62-1.52-2.13-3.12-4.21-3.76-6.8Zm-.7-17.74c.97,1.82,2.18,3.57,3.01,5.35,1.9,4.09,2.85,8.62,2.73,13.14-.06,2.16-.46,4.35-.34,6.51-1.44-2.82-2.36-5.88-2.99-8.97-.78-3.8-1.16-7.66-1.68-11.5-.21-1.52-.44-3.03-.72-4.53Zm90.25,43.02c-7.34,3.52-15.09,5.99-23.16,7.03-3.7.47-7.43.64-11.14.52-2.27-.84-4.44-1.92-6.48-3.24-.11-.07-.22-.14-.33-.22-.32-1.15-.98-2.15-1.66-3.12-.77-1.1-1.54-2.2-2.32-3.3,0-.03,0-.05,0-.08-.11-.89-.37-1.91-1.29-2.29-.21-.08-.45-.12-.65,0-.25.14-.32.43-.26.7.1.43.38.84.67,1.17.33.37.72.69,1.1,1,.73,1.03,1.45,2.07,2.18,3.1.49.71,1,1.43,1.35,2.23-2.12-1.5-4.06-3.23-5.78-5.18-1.11-1.25-2.12-2.59-3.03-4-.2-.82-.48-1.77-1.28-2.16-.4-.2-1.03-.14-1.09.41-.04.42.34.81.6,1.1.36.4.78.75,1.23,1.03,0,0,.02,0,.03.02,0,0,0,0,.01,0,1.66,2.58,3.69,4.92,5.99,6.96,2.34,2.08,4.96,3.82,7.77,5.19.43.21.86.41,1.3.6-3.92-.23-7.83-.78-11.67-1.63-2.22-.49-4.42-1.06-6.61-1.71-.01,0-.02-.01-.03-.02-1.77-1.65-2.89-3.94-3.72-6.21-1.09-2.99-1.82-6.1-2.82-9.12-.99-2.99-2.21-5.94-4.06-8.51-2.04-2.82-4.74-5.05-7.09-7.6-1.76-1.92-3.39-4.12-4.15-6.65-.05-.24-.1-.48-.15-.72-.09-.42-.17-.85-.25-1.28-.08-.4-.67-.3-.63.11.07.68.21,1.34.4,1.99.59,2.81,1.34,5.59,2.54,8.2.77,1.69,1.78,3.24,2.73,4.83.92,1.55,1.7,3.15,2.35,4.83,1.26,3.24,2.15,6.63,3.69,9.75,1.5,3.02,3.63,5.69,6.21,7.85.73.61,1.5,1.18,2.3,1.71-5.04-1.62-9.98-3.6-14.75-5.83-2.55-1.54-4.88-3.37-6.89-5.61-1.22-1.36-2.31-2.85-3.24-4.42-.47-.8-.9-1.62-1.29-2.46-.27-.58-.49-1.2-.75-1.8,0-.03,0-.06,0-.1-.26-2.37.1-4.69.2-7.05.09-2.12-.05-4.25-.4-6.33-.36-2.09-.93-4.14-1.72-6.1-.79-1.98-1.85-3.8-2.92-5.64-1.21-2.07-2.32-4.24-2.38-6.69,0-.33-.44-.37-.51-.04-.48,2.34.2,4.56.54,6.86.4,2.69.42,5.42.46,8.13.04,2.51.05,5.06.49,7.53.44,2.47,1.57,4.57,3.02,6.58.87,1.21,1.82,2.36,2.65,3.6.23.35.46.7.68,1.06.45.93.99,1.83,1.48,2.66.96,1.6,2.08,3.12,3.32,4.52,1.19,1.34,2.51,2.6,3.94,3.72-1.77-.87-3.53-1.77-5.27-2.69-.02-.04-.05-.07-.1-.09-.12-.05-.24-.1-.36-.15-3.67-1.94-7.3-3.95-10.94-5.94-.27-.24-.55-.46-.8-.69-.49-.46-.98-.91-1.45-1.39-.22-.23-.44-.46-.66-.7-.47-.93-1.12-1.79-1.57-2.74-.56-1.19-1-2.41-1.29-3.69-.28-1.21-.51-2.42-.62-3.66-.08-.98-.07-1.96-.1-2.93.27-.3.28-.85.28-1.23,0-.43-.08-.85-.5-1.04-.11-.05-.27,0-.33.1-.23.38-.3.78-.24,1.22.04.28.15.78.38,1.01-.24,2.19.17,4.61.77,6.65.37,1.26.81,2.52,1.35,3.72.12.26.24.54.36.82-.09-.11-.18-.23-.27-.34-.76-.99-1.47-2.02-2.15-3.08-.6-.94-1.13-1.92-1.77-2.82,0-.02,0-.04,0-.06,0-.52-.14-1.08-.48-1.49-.25-.29-.83-.67-1.2-.36-.38.31-.09.89.13,1.19.31.42.74.84,1.21,1.08.41.91.95,1.76,1.48,2.6.75,1.18,1.54,2.33,2.4,3.43.82,1.06,1.71,2.07,2.66,3.01.08.08.16.16.24.24-.79-.43-1.58-.86-2.37-1.28-2.1-1.12-4.2-2.25-6.32-3.34-.11-.06-.22-.12-.34-.17-1.08-.55-2.17-1.08-3.26-1.6-3.05-3.46-7.37-6.1-11.83-7.21-4.4-1.09-9.02-.84-13.43.1-2.73.58-5.33,1.55-8.02,2.28-.41.11-.46.79.03.81,2.44.07,4.81.05,7.23.42,2.49.38,4.88,1.06,7.27,1.85,2.29.76,4.57,1.57,6.94,2.05,2.52.51,5.08.5,7.64.57,2.07.05,4.16.21,6.13.8,2.14,1.08,4.25,2.21,6.36,3.34,4.9,2.61,9.76,5.3,14.65,7.92-1.46-.15-2.92.04-4.4.45-2.46.19-4.77-.33-7.11-1.06-2.46-.77-4.86-1.41-7.42-1.74-4.98-.64-10.02-1.19-15.05-.86-2.9.19-5.6.86-8.38,1.64-.44.12-.45.74.03.81,3.15.45,6.33.63,9.48,1.16,3.08.52,6.07,1.33,9.09,2.14,2.75.73,5.56,1.36,8.43,1.29,2.8-.06,5.54-.72,8.19-1.6,1.57-.52,3.11-1.18,4.75-1.46,1.27-.22,2.61-.19,3.89.04,2.4,1.28,4.82,2.55,7.25,3.78,4.8,2.43,9.64,4.79,14.64,6.75-.74-.1-1.48-.19-2.22-.26-1.01-.1-2.03-.19-3.05-.25-.03-.02-.08-.03-.12-.03-4.4-.21-8.59-1.74-12.57-3.53-1.01-.45-2.01-.92-3.01-1.4,0,0,0,0,0,0-.4-.49-.8-.99-1.27-1.42-.42-.39-.99-.65-1.57-.47-.27.08-.54.28-.62.57-.08.27,0,.57.14.81.27.48.76.81,1.29.95.63.18,1.29.14,1.93.21,3.49,1.65,7.02,3.26,10.78,4.18-1.37.01-2.74.07-4.11.15-.02,0-.03,0-.04,0-.07,0-.14,0-.21.01-.34-.14-.69-.27-1.05-.35-.43-.09-.94-.03-1.26.3-.17.18-.32.43-.24.69.08.27.33.35.58.41.39.09.8.11,1.19.04.34-.06.66-.18.96-.36.09-.08.18-.12.29-.13,2.5-.16,5-.19,7.5-.08,2.66.11,5.31.36,7.93.77.57.09,1.14.18,1.7.28,2.22.79,4.48,1.49,6.77,2.07,5.52,1.4,11.14,2.19,16.8,2.31-2.06,1.12-4.41,1.62-6.75,1.7-2.66.09-5.32-.29-7.93-.83-2.94-.6-5.89-1.43-8.92-1.2-2.98.23-5.78,1.42-8.57,2.4-2.55.9-5.29,1.66-8,1.28-.05,0-.09-.02-.14-.03-.38-.08-.76-.15-1.14-.24-.35-.08-.48.52-.14.61.41.11.82.2,1.24.26,1.12.22,2.24.4,3.37.55.07.05.15.08.23.05.02,0,.04-.01.06-.02,1.56.19,3.13.32,4.7.37,3.2.1,6.39-.16,9.59-.17,1.55,0,3.09.06,4.63.24,1.41.17,2.81.4,4.22.55,1.4.15,2.81.23,4.21.1,1.41-.13,2.79-.52,4.08-1.11,2.49-1.14,4.62-2.89,6.8-4.51,2.17,0,4.35-.1,6.53-.3,9-.83,18.01-3.3,26-7.57.82-.44.26-1.73-.59-1.32Z"></path></g></g></g></svg>