<svg width="26" height="25" viewBox="0 0 26 25" fill="none" xmlns="http://www.w3.org/2000/svg">
<g clip-path="url(#clip0_1_82)">
<path d="M12.7031 25C19.6067 25 25.2031 19.4036 25.2031 12.5C25.2031 5.59644 19.6067 0 12.7031 0C5.79957 0 0.203125 5.59644 0.203125 12.5C0.203125 19.4036 5.79957 25 12.7031 25Z" fill="#691817"/>
<path d="M13.7911 9.60289C13.9284 9.47212 14.1112 9.39983 14.3009 9.40126C14.4905 9.4027 14.6722 9.47775 14.8075 9.61058C14.9429 9.74341 15.0213 9.92362 15.0264 10.1132C15.0314 10.3028 14.9625 10.4869 14.8344 10.6267L10.9439 15.4922C10.877 15.5643 10.7963 15.6221 10.7065 15.6622C10.6168 15.7024 10.5198 15.724 10.4215 15.7258C10.3232 15.7276 10.2256 15.7096 10.1344 15.6728C10.0432 15.6361 9.9604 15.5813 9.89088 15.5117L7.31088 12.9317C7.23904 12.8648 7.18141 12.784 7.14144 12.6943C7.10147 12.6046 7.07998 12.5078 7.07824 12.4096C7.07651 12.3114 7.09457 12.2139 7.13135 12.1228C7.16813 12.0318 7.22288 11.949 7.29232 11.8796C7.36176 11.8102 7.44448 11.7554 7.53554 11.7186C7.6266 11.6819 7.72413 11.6638 7.82232 11.6655C7.92051 11.6673 8.01735 11.6888 8.10705 11.7287C8.19676 11.7687 8.27749 11.8263 8.34444 11.8982L10.3862 13.939L13.7716 9.62434C13.7776 9.61681 13.7842 9.60965 13.7911 9.60289ZM12.894 14.6147L13.7911 15.5117C13.8606 15.5811 13.9433 15.6358 14.0344 15.6725C14.1255 15.7092 14.2231 15.7271 14.3213 15.7253C14.4194 15.7235 14.5163 15.7019 14.6059 15.6619C14.6956 15.6218 14.7763 15.5641 14.8432 15.4922L18.7356 10.6267C18.8055 10.5577 18.8608 10.4752 18.8982 10.3844C18.9355 10.2935 18.9542 10.196 18.953 10.0978C18.9519 9.99951 18.931 9.9025 18.8915 9.81252C18.852 9.72254 18.7948 9.64144 18.7233 9.57405C18.6518 9.50667 18.5674 9.45439 18.4753 9.42033C18.3831 9.38627 18.285 9.37114 18.1869 9.37583C18.0887 9.38053 17.9925 9.40495 17.904 9.44765C17.8155 9.49034 17.7366 9.55044 17.6718 9.62434L14.2854 13.939L13.8125 13.4651L12.894 14.6147Z" fill="white"/>
</g>
<defs>
<clipPath id="clip0_1_82">
<rect width="25" height="25" fill="white" transform="translate(0.203125)"/>
</clipPath>
</defs>
</svg>
